#!OML:ASF G:\JayActor3\Patient Classification 1\Patient 1\Session 6\male.ASF
:FULLY-SPECIFIED
:DEGREES
1870
root 3.07546 16.0874 -24.597 513.168 -59.3648 -516.97
lowerback -3.92863 -2.05998 4.89389
upperback -0.355548 -3.01523 1.15958
thorax 1.64736 -1.48944 -1.70108
lowerneck 5.99944 0.94206 -4.82856
upperneck 10.2547 -1.68045 21.4724
head 2.08963 -1.0885 7.46048
rclavicle 3.85642e-014 2.62396e-014
rhumerus -38.9086 -17.22 -80.8961
rradius 120.138
rwrist 16.8163
rhand -2.65642 -29.4448
rfingers 7.12502
rthumb 23.0437 -58.0871
lclavicle 3.85642e-014 2.62396e-014
lhumerus -4.44397 -18.4703 84.823
lradius 120.643
lwrist -13.4131
lhand -38.9191 7.97629
lfingers 7.12502
lthumb -11.9257 37.6166
rfemur -1.71792 -0.00769254 35.6124
rtibia 31.8355
rfoot -23.164 -8.57961
rtoes 7.63578
lfemur 2.06577 2.47747 -3.86853
ltibia 32.3647
lfoot -23.0541 -9.80045
ltoes -0.955886
1871
root 3.07391 16.0853 -24.6246 512.997 -59.5314 -516.874
lowerback -3.99055 -2.03124 4.91928
upperback -0.350897 -2.9797 1.09922
thorax 1.68457 -1.46989 -1.77833
lowerneck 6.05875 0.993612 -4.81979
upperneck 10.1507 -1.57471 21.4492
head 2.03476 -1.04098 7.44983
rclavicle -4.17448e-015 -7.15625e-015
rhumerus -38.9262 -17.1984 -80.9565
rradius 120.048
rwrist 16.7892
rhand -2.62637 -29.4585
rfingers 7.12502
rthumb 23.0725 -58.0972
lclavicle -4.17448e-015 -7.15625e-015
lhumerus -4.20992 -19.3142 84.8537
lradius 120.823
lwrist -13.5128
lhand -38.8371 8.23176
lfingers 7.12502
lthumb -11.8466 37.8767
rfemur -1.54946 -0.127032 35.6802
rtibia 31.7507
rfoot -23.2297 -8.6262
rtoes 7.69892
lfemur 2.0787 2.43727 -3.77603
ltibia 32.4782
lfoot -23.0093 -9.85331
ltoes -1.24065
1872
root 3.07268 16.0829 -24.6521 512.825 -59.6887 -516.771
lowerback -4.05692 -1.99875 4.94828
upperback -0.344368 -2.93987 1.04242
thorax 1.72662 -1.44806 -1.85394
lowerneck 6.13733 1.0457 -4.82085
upperneck 10.0141 -1.4632 21.4399
head 1.96628 -0.993343 7.44514
rclavicle -7.11649e-014 3.49861e-014
rhumerus -38.9412 -17.1831 -81.009
rradius 119.965
rwrist 16.759
rhand -2.58957 -29.4587
rfingers 7.12502
rthumb 23.1078 -58.093
lclavicle -7.11649e-014 3.49861e-014
lhumerus -3.96684 -20.1462 84.8723
lradius 120.994
lwrist -13.6113
lhand -38.7428 8.47378
lfingers 7.12502
lthumb -11.7556 38.1239
rfemur -1.38269 -0.220766 35.7609
rtibia 31.6606
rfoot -23.3007 -8.68744
rtoes 7.78037
lfemur 2.07761 2.41066 -3.67184
ltibia 32.606
lfoot -22.9551 -9.92633
ltoes -1.52149
1873
root 3.07182 16.0805 -24.6794 512.64 -59.8288 -516.648
lowerback -4.12591 -1.96119 4.99143
upperback -0.335684 -2.89453 0.991625
thorax 1.7725 -1.42332 -1.9311
lowerneck 6.22716 1.0982 -4.83419
upperneck 9.85179 -1.34787 21.4466
head 1.88776 -0.945874 7.44759
rclavicle 2.80286e-014 -7.95139e-016
rhumerus -38.9518 -17.174 -81.0549
rradius 119.891
rwrist 16.7281
rhand -2.5413 -29.4488
rfingers 7.12502
rthumb 23.1541 -58.0772
lclavicle 2.80286e-014 -7.95139e-016
lhumerus -3.71785 -20.9626 84.8828
lradius 121.16
lwrist -13.7114
lhand -38.6315 8.70415
lfingers 7.12502
lthumb -11.6483 38.3604
rfemur -1.21539 -0.290102 35.8628
rtibia 31.5613
rfoot -23.3699 -8.76001
rtoes 7.88226
lfemur 2.06255 2.40378 -3.54385
ltibia 32.7503
lfoot -22.8876 -10.029
ltoes -1.77641
1874
root 3.07092 16.0778 -24.7062 512.441 -59.9666 -516.515
lowerback -4.18978 -1.9225 5.04439
upperback -0.322702 -2.84799 0.940576
thorax 1.8197 -1.39777 -2.01375
lowerneck 6.32937 1.15063 -4.85497
upperneck 9.66453 -1.22925 21.4665
head 1.79936 -0.898803 7.4554
rclavicle 1.27222e-014 2.54444e-014
rhumerus -38.9618 -17.1719 -81.0962
rradius 119.823
rwrist 16.6954
rhand -2.51072 -29.4334
rfingers 7.12502
rthumb 23.1835 -58.0582
lclavicle 1.27222e-014 2.54444e-014
lhumerus -3.46096 -21.7635 84.882
lradius 121.322
lwrist -13.8057
lhand -38.4995 8.94873
lfingers 7.12502
lthumb -11.521 38.6121
rfemur -1.03628 -0.367186 35.9656
rtibia 31.4511
rfoot -23.4342 -8.82663
rtoes 7.97975
lfemur 2.04187 2.39887 -3.40888
ltibia 32.9103
lfoot -22.8117 -10.1513
ltoes -2.02116
1875
root 3.06983 16.0751 -24.7326 512.23 -60.1007 -516.38
lowerback -4.25212 -1.88147 5.10754
upperback -0.302273 -2.79894 0.8878
thorax 1.87352 -1.37052 -2.10379
lowerneck 6.44104 1.20305 -4.88774
upperneck 9.45514 -1.10828 21.5028
head 1.70243 -0.852455 7.47047
rclavicle -6.16232e-015 -1.98785e-014
rhumerus -38.974 -17.1799 -81.1291
rradius 119.761
rwrist 16.6696
rhand -2.47774 -29.4127
rfingers 7.12502
rthumb 23.2151 -58.0335
lclavicle -6.16232e-015 -1.98785e-014
lhumerus -3.19875 -22.5494 84.8731
lradius 121.485
lwrist -13.8977
lhand -38.3617 9.21453
lfingers 7.12502
lthumb -11.3881 38.8853
rfemur -0.841332 -0.460294 36.0625
rtibia 31.3299
rfoot -23.4889 -8.87693
rtoes 8.08482
lfemur 2.02387 2.39691 -3.27156
ltibia 33.0839
lfoot -22.7338 -10.283
ltoes -2.26047
1876
root 3.06869 16.0722 -24.7581 511.994 -60.2452 -516.23
lowerback -4.29651 -1.84438 5.18266
upperback -0.28143 -2.7545 0.831263
thorax 1.91684 -1.34564 -2.20381
lowerneck 6.5566 1.25587 -4.91529
upperneck 9.23479 -0.984751 21.541
head 1.60134 -0.805519 7.48498
rclavicle -1.90833e-014 -1.03368e-014
rhumerus -38.9916 -17.1968 -81.1559
rradius 119.702
rwrist 16.6516
rhand -2.43499 -29.388
rfingers 7.12502
rthumb 23.2561 -58.0036
lclavicle -1.90833e-014 -1.03368e-014
lhumerus -2.93961 -23.3228 84.8558
lradius 121.652
lwrist -13.9883
lhand -38.2311 9.49166
lfingers 7.12502
lthumb -11.2621 39.1693
rfemur -0.633557 -0.588312 36.1506
rtibia 31.2
rfoot -23.5365 -8.9071
rtoes 8.18612
lfemur 2.00575 2.38395 -3.13354
ltibia 33.2674
lfoot -22.6492 -10.4252
ltoes -2.4934
1877
root 3.06756 16.0694 -24.7828 511.732 -60.3969 -516.065
lowerback -4.32485 -1.81118 5.27142
upperback -0.258612 -2.71484 0.7711
thorax 1.95225 -1.3231 -2.31479
lowerneck 6.67126 1.31053 -4.93236
upperneck 9.00446 -0.855718 21.5745
head 1.49689 -0.755985 7.49572
rclavicle -9.323e-014 -4.77083e-015
rhumerus -39.0136 -17.2175 -81.1804
rradius 119.647
rwrist 16.6432
rhand -2.39022 -29.3718
rfingers 7.12502
rthumb 23.2991 -57.982
lclavicle -9.323e-014 -4.77083e-015
lhumerus -2.68288 -24.0812 84.8274
lradius 121.822
lwrist -14.0735
lhand -38.1161 9.78845
lfingers 7.12502
lthumb -11.1512 39.4721
rfemur -0.416062 -0.752833 36.2301
rtibia 31.0642
rfoot -23.5709 -8.91951
rtoes 8.2595
lfemur 1.98946 2.35752 -2.99515
ltibia 33.4579
lfoot -22.5621 -10.5692
ltoes -2.7264
1878
root 3.06672 16.0668 -24.8068 511.452 -60.5564 -515.886
lowerback -4.3464 -1.78224 5.36753
upperback -0.231748 -2.68089 0.709172
thorax 1.98737 -1.30321 -2.43182
lowerneck 6.78932 1.37006 -4.94051
upperneck 8.75731 -0.715441 21.6037
head 1.38559 -0.701565 7.50298
rclavicle 4.77083e-015 -7.95139e-016
rhumerus -39.0343 -17.2386 -81.2068
rradius 119.595
rwrist 16.6445
rhand -2.3485 -29.366
rfingers 7.12502
rthumb 23.3391 -57.9711
lclavicle 4.77083e-015 -7.95139e-016
lhumerus -2.42109 -24.8239 84.7853
lradius 121.996
lwrist -14.1496
lhand -38.0192 10.0792
lfingers 7.12502
lthumb -11.0578 39.7679
rfemur -0.196244 -0.935239 36.3063
rtibia 30.9262
rfoot -23.5995 -8.92493
rtoes 8.32244
lfemur 1.97096 2.31821 -2.85647
ltibia 33.6522
lfoot -22.4698 -10.7172
ltoes -2.95384
1879
root 3.06638 16.0643 -24.8303 511.172 -60.7171 -515.708
lowerback -4.35864 -1.75412 5.46614
upperback -0.205377 -2.6475 0.645339
thorax 2.01672 -1.28366 -2.55188
lowerneck 6.90633 1.4322 -4.93205
upperneck 8.49793 -0.566805 21.6195
head 1.27014 -0.642983 7.50235
rclavicle -1.68967e-014 -2.38542e-015
rhumerus -39.0503 -17.2582 -81.2369
rradius 119.546
rwrist 16.6525
rhand -2.30369 -29.3679
rfingers 7.12502
rthumb 23.3821 -57.9676
lclavicle -1.68967e-014 -2.38542e-015
lhumerus -2.15179 -25.5506 84.7307
lradius 122.161
lwrist -14.2164
lhand -37.9411 10.3661
lfingers 7.12502
lthumb -10.9824 40.0588
rfemur 0.0174641 -1.12871 36.3769
rtibia 30.7905
rfoot -23.6179 -8.92721
rtoes 8.36504
lfemur 1.9489 2.26723 -2.72253
ltibia 33.8455
lfoot -22.3661 -10.8712
ltoes -3.15631
